<?xml version="1.0" standalone="no"?>
<!DOCTYPE svg PUBLIC "-//W3C//DTD SVG 20010904//EN"
 "http://www.w3.org/TR/2001/REC-SVG-20010904/DTD/svg10.dtd">
<svg version="1.0" xmlns="http://www.w3.org/2000/svg"
 width="552.000000pt" height="552.000000pt" viewBox="0 0 552.000000 552.000000"
 preserveAspectRatio="xMidYMid meet">
<metadata>
Created by potrace 1.16, written by Peter Selinger 2001-2019
</metadata>
<g transform="translate(0.000000,552.000000) scale(0.100000,-0.100000)"
fill="#000000" stroke="none">
<path d="M0 2760 l0 -2760 2760 0 2760 0 0 2760 0 2760 -2760 0 -2760 0 0
-2760z m2404 1558 c11 -18 46 -204 46 -248 0 -5 23 13 51 41 67 65 124 103
222 149 211 98 446 105 635 20 176 -80 343 -255 417 -437 59 -147 77 -413 41
-613 -48 -270 -184 -516 -368 -669 -94 -79 -264 -164 -383 -192 -162 -39 -399
-25 -549 32 -27 10 -51 17 -53 16 -8 -9 16 -976 26 -1006 21 -66 32 -71 157
-71 62 0 119 -3 128 -6 13 -5 16 -22 16 -85 0 -46 -4 -79 -10 -80 -5 0 -248 0
-540 0 -291 0 -534 0 -540 0 -6 1 -10 34 -10 80 0 63 3 80 16 85 9 3 58 6 109
6 111 0 121 3 143 44 16 29 17 118 20 1192 l2 1160 -23 45 c-23 44 -74 84
-199 154 -51 29 -53 32 -56 76 -2 29 2 49 10 56 15 11 569 252 607 263 46 14
70 11 85 -12z"/>
<path d="M2727 4056 c-80 -23 -156 -68 -214 -124 l-54 -53 3 -547 c3 -533 4
-548 24 -593 87 -188 443 -275 634 -154 49 31 126 118 156 176 53 105 76 213
81 381 12 347 -66 630 -218 793 -86 92 -159 126 -276 131 -56 2 -106 -2 -136
-10z"/>
</g>
</svg>
